<svg xmlns="http://www.w3.org/2000/svg" width="150" height="36" viewBox="0 0 150 36">
  <g fill="none" fill-rule="evenodd" transform="translate(.44)">
    <circle cx="82.564" cy="10.562" r="1.938" fill="#FF4500"/>
    <circle cx="104.24" cy="10.562" r="1.938" fill="#FF4500"/>
    <path fill="#1E2537" fill-rule="nonzero" d="M54.888 18.825c.95 0 1.499-.713 1.462-1.408-.01-.264-.04-.526-.09-.786-.586-2.522-2.633-4.387-5.065-4.387-2.888 0-5.228 2.614-5.228 5.831 0 3.218 2.34 5.832 5.228 5.832 1.81 0 3.108-.658 4.04-1.7.457-.512.366-1.298-.182-1.682-.457-.31-1.024-.201-1.444.146-.403.348-1.17 1.042-2.414 1.042-1.462 0-2.705-1.261-2.98-2.925h6.673v.037zm-3.71-4.37c1.315 0 2.449 1.025 2.87 2.432h-5.74c.42-1.426 1.553-2.431 2.87-2.431zm-5.1-1.06c0-.548-.403-.987-.915-1.078-1.59-.237-3.09.347-3.948 1.426v-.146c0-.677-.549-1.097-1.097-1.097-.605.002-1.095.492-1.097 1.097v8.957c0 .585.439 1.097 1.024 1.133.64.037 1.17-.457 1.17-1.097v-4.624c0-2.048 1.535-3.73 3.656-3.492h.219c.548-.036.987-.512.987-1.078zm37.583 1.17c-.002-.604-.492-1.094-1.097-1.096-.605.001-1.095.492-1.097 1.097v8.024c.002.606.492 1.096 1.097 1.097.605-.002 1.095-.492 1.097-1.097v-8.024zM67.355 8.498c-.002-.605-.492-1.095-1.097-1.097-.605.002-1.095.492-1.096 1.097v4.88c-.75-.75-1.682-1.115-2.797-1.115-2.889 0-5.228 2.614-5.228 5.832 0 3.217 2.34 5.831 5.228 5.831 1.115 0 2.065-.384 2.815-1.134.091.513.548.896 1.078.896.605-.001 1.095-.491 1.097-1.097V8.497zm-4.972 13.252c-1.682 0-3.035-1.626-3.035-3.655 0-2.011 1.353-3.656 3.035-3.656 1.682 0 3.035 1.627 3.035 3.656s-1.372 3.655-3.035 3.655zM78.798 8.497c-.001-.605-.491-1.095-1.096-1.097-.605.002-1.096.492-1.097 1.097v4.88c-.75-.75-1.682-1.115-2.797-1.115-2.888 0-5.228 2.614-5.228 5.832 0 3.217 2.34 5.831 5.228 5.831 1.115 0 2.066-.384 2.815-1.134.091.513.548.896 1.079.896.605-.001 1.095-.491 1.096-1.097V8.497zm-4.99 13.252c-1.682 0-3.034-1.626-3.034-3.655 0-2.011 1.352-3.656 3.034-3.656 1.682 0 3.035 1.627 3.035 3.656s-1.353 3.655-3.035 3.655zm15.41.86v-8.153h.969c.512 0 .969-.384 1.005-.914.037-.567-.42-1.042-.969-1.042h-1.005v-1.536c0-.585-.439-1.096-1.024-1.133-.64-.036-1.17.457-1.17 1.097v1.59h-.914c-.511 0-.968.384-1.005.914-.037.567.42 1.042.969 1.042h.932v8.153c.002.605.492 1.095 1.097 1.097.64-.037 1.115-.512 1.115-1.115zM132.644 18.825c.95 0 1.499-.713 1.463-1.408-.01-.264-.041-.526-.092-.786-.585-2.522-2.632-4.387-5.064-4.387-2.888 0-5.227 2.614-5.227 5.831 0 3.218 2.34 5.832 5.227 5.832 1.81 0 3.108-.658 4.04-1.7.458-.512.366-1.298-.182-1.682-.457-.31-1.024-.201-1.444.146-.402.348-1.17 1.042-2.414 1.042-1.462 0-2.705-1.261-2.979-2.925h6.672v.037zm-3.71-4.37c1.315 0 2.449 1.025 2.87 2.432h-5.74c.42-1.426 1.553-2.431 2.87-2.431zm13.633-1.079c0-.548-.402-.987-.914-1.078-1.59-.238-3.09.347-3.948 1.426v-.147c0-.676-.549-1.096-1.097-1.096-.605.001-1.095.491-1.097 1.096v8.957c0 .585.439 1.097 1.024 1.134.64.036 1.17-.457 1.17-1.097v-4.625c0-2.047 1.535-3.729 3.656-3.491h.219c.548-.037.987-.512.987-1.079zm-37.234 1.083c-.001-.604-.491-1.095-1.096-1.096-.605.001-1.095.491-1.097 1.096v8.025c.002.605.492 1.095 1.097 1.097.605-.002 1.095-.492 1.096-1.097V14.46zM99.2 9.755c.585.036 1.023.548 1.023 1.133v1.536h1.006c.548 0 1.005.475.968 1.042-.036.53-.493.914-1.005.914h-.969v8.153c0 .603-.475 1.078-1.115 1.115-.605-.002-1.095-.492-1.097-1.097v-8.153h-.932c-.548 0-1.005-.475-.969-1.042.037-.53.494-.914 1.006-.914h.914v-1.59c0-.64.53-1.134 1.17-1.097zm19.027 2.49c.439 0 .887.074 1.344.222.465.15.89.397 1.275.739.386.343.703.787.95 1.33.248.547.37 1.21.37 1.989v5.897c0 .352-.1.642-.306.857-.208.216-.484.324-.814.324-.33 0-.607-.108-.814-.324-.206-.215-.307-.505-.307-.857v-5.957c0-.703-.18-1.245-.537-1.637-.352-.387-.846-.581-1.5-.581-.655 0-1.146.194-1.49.58-.35.391-.529.934-.529 1.638v5.957c0 .352-.1.642-.307.857-.207.216-.484.324-.814.324-.33 0-.606-.108-.813-.324-.207-.215-.307-.505-.307-.857v-5.957c0-.703-.181-1.245-.537-1.637-.352-.387-.846-.581-1.501-.581-.655 0-1.145.194-1.49.58-.35.391-.528.934-.528 1.638v5.957c0 .352-.1.642-.307.857-.207.216-.484.324-.814.324-.33 0-.606-.108-.814-.324-.206-.215-.307-.505-.307-.857v-8.996c0-.352.101-.642.307-.857.208-.216.484-.324.814-.324.33 0 .607.108.814.324.147.154.24.345.282.57l.008.061.132-.132c.088-.082.186-.16.293-.233l.167-.106c.231-.137.499-.252.803-.344.311-.094.678-.14 1.1-.14.558 0 1.112.14 1.658.416.434.22.826.573 1.177 1.056l.099.142.148-.182c.253-.295.527-.549.822-.762l.225-.153c.548-.346 1.232-.517 2.048-.517z"/>
    <g fill-rule="nonzero">
      <path fill="#1E2537" d="M15.418 0c8.504 0 15.459 6.914 15.459 15.418 0 3.497-1.193 6.716-3.14 9.3l6.716 6.715c.993.993.993 2.583 0 3.576-.477.517-1.152.755-1.788.755-.636 0-1.312-.278-1.788-.755l-6.756-6.755-.08-.08c-2.463 1.67-5.444 2.663-8.623 2.663C6.914 30.837 0 23.922 0 15.418 0 6.914 6.914 0 15.418 0zm-.006.992C7.43.992.96 7.446.96 15.407c0 7.962 6.47 14.416 14.452 14.416s14.452-6.454 14.452-14.416c0-7.961-6.47-14.415-14.452-14.415z"/>
      <g>
        <path fill="#FFF" d="M15.125 15.875c-.864.864-2.257 1.03-3.426 1.03-1.168 0-2.561-.166-3.424-1.03m9.494-13.673l-4.378-1.03-1.7 5.188 1.7-5.189m7.89 1.385c0 .953-.773 1.726-1.726 1.726s-1.726-.773-1.726-1.726c.021-.938.788-1.688 1.726-1.688s1.705.75 1.726 1.688zM1.867 11.89c-.796-.35-1.31-1.136-1.309-2.005 0-.92.574-1.742 1.439-2.058.865-.315 1.834-.055 2.426.65m14.518.044c.58-.727 1.556-1.009 2.434-.702.878.307 1.466 1.136 1.467 2.066 0 .903-.555 1.714-1.397 2.041" transform="translate(3.663 5.604)"/>
        <path fill="#1E2537" d="M11.652 19.8c-5.705 0-10.347-3.097-10.347-6.904 0-.263.022-.523.066-.779C.597 11.64.125 10.795.125 9.885.127 8.438 1.3 7.265 2.747 7.263c.645 0 1.26.237 1.737.659 1.794-1.152 4.208-1.877 6.871-1.927L13.104.659l.381.09.01.003 4.074.959c.34-.796 1.12-1.312 1.986-1.313 1.192.001 2.157.967 2.158 2.158-.001 1.192-.967 2.157-2.158 2.159-1.19-.002-2.156-.966-2.158-2.156l-3.718-.875-1.416 4.32c2.566.1 4.884.827 6.614 1.954.483-.447 1.118-.695 1.777-.694 1.447.002 2.62 1.174 2.621 2.621.004.947-.506 1.822-1.332 2.284.038.24.057.481.057.727 0 3.807-4.643 6.904-10.348 6.904zm-9.395-7.722c-.058.269-.087.543-.087.818 0 3.33 4.254 6.039 9.482 6.039s9.482-2.71 9.482-6.039c0-.265-.027-.525-.08-.781-.028-.06-.042-.123-.042-.189-.29-1.136-1.079-2.167-2.22-2.999-.072-.026-.136-.071-.185-.131-1.733-1.192-4.209-1.939-6.955-1.939-2.718 0-5.173.733-6.904 1.904-.047.054-.107.095-.173.12-1.165.832-1.975 1.87-2.275 3.017-.001.057-.014.114-.037.166-.002.005-.003.01-.006.014zM19.6 8.48c1.003.802 1.739 1.757 2.115 2.806.44-.331.697-.85.694-1.401 0-.97-.787-1.756-1.756-1.756-.38-.001-.75.122-1.053.35zM2.747 8.129c-.97 0-1.756.786-1.756 1.756 0 .525.233 1.012.62 1.34.39-1.04 1.133-1.987 2.14-2.782-.295-.205-.645-.314-1.004-.314zm16.808-6.867c-.713 0-1.294.58-1.294 1.294 0 .713.58 1.293 1.294 1.293.712 0 1.293-.58 1.293-1.293s-.58-1.294-1.293-1.294zm-7.856 16.076c-1.732 0-2.953-.379-3.73-1.157-.17-.17-.17-.443 0-.612.169-.169.442-.169.611 0 .608.608 1.628.904 3.12.904 1.49 0 2.51-.296 3.12-.904.109-.11.268-.152.417-.112.15.04.266.157.306.306.04.15-.003.309-.112.418-.78.778-2 1.157-3.732 1.157z" transform="translate(3.663 5.604)"/>
        <path fill="#FF4500" d="M15.206 10.019c-.881 0-1.621.738-1.621 1.62 0 .88.74 1.595 1.621 1.595.882 0 1.596-.714 1.596-1.595 0-.882-.714-1.62-1.596-1.62zm-6.988 0c-.88 0-1.62.74-1.62 1.62 0 .88.739 1.595 1.62 1.595.88 0 1.595-.715 1.595-1.595s-.715-1.62-1.595-1.62z" transform="translate(3.663 5.604)"/>
      </g>
    </g>
  </g>
</svg>